# xmcd
#
# Track frame offsets: 
#        150
#        22382
#        36900
#        52864
#        70940
#        84720
#        101093
#        124836
#        144134
#        166036
#        184611
#        202625
#        216018
#        235027
#        254736
#        266525
#        277714
#        293813
#        305841
#        326339
#
# Disc length: 4726 seconds
#
# Revision: 1
# Processed by: cddbd v1.5.2PL0 Copyright (c) Steve Scherf et al.
# Submitted via: ExactAudioCopy v1.0b3
#
DISCID=1b127414
DTITLE=Jools Holland - Jools Holland and friends
DYEAR=2011
DGENRE=Pop
TTITLE0=Jools Holland - George Harrison - Horse to the water
TTITLE1=Jools Holland - Herbert Grönemeyer - Marie
TTITLE2=Jools Holland - Ruby Turner - The informer
TTITLE3=Jools Holland - Valerie - Wohin die Liebe fällt (Wheel of fortu
TTITLE3=ne)
TTITLE4=Jools Holland - Sting - Seventh son
TTITLE5=Jools Holland - Melanie Chisholm - Out of this world
TTITLE6=Jools Holland - Roger Cicero - I love every little thing about 
TTITLE6=you
TTITLE7=Jools Holland - Ina Müller - Übers Meer
TTITLE8=Jools Holland - Solomon Burke - Eric Clapton - Mabel
TTITLE9=Jools Holland - Mica Paris - David Gilmour - I put a spell on yo
TTITLE9=u
TTITLE10=Jools Holland - Tom Jones - Think
TTITLE11=Jools Holland - Louise Marshall - I went by
TTITLE12=Jools Holland - The Baseballs - Ba-ba, boo-boo (Into your hear
TTITLE12=t)
TTITLE13=Jools Holland - Sam Brown - Nick Cave - The kiss of love
TTITLE14=Jools Holland - Robert Plant - Let the boogie woogie roll
TTITLE15=Jools Holland - Herbert Grönemeyer - Just to be home with you
TTITLE16=Tuxedo junction
TTITLE17=Jools Holland - Axel Zwingenberger - Torsten Zwingenberger - Mi
TTITLE17=niatur-Wunderland
TTITLE18=Jools Holland - Marc Almond - Say hello, wave goodbye
TTITLE19=Jools Holland - Bono - If you wear that velvet dress
EXTD=
EXTT0=
EXTT1=
EXTT2=
EXTT3=
EXTT4=
EXTT5=
EXTT6=
EXTT7=
EXTT8=
EXTT9=
EXTT10=
EXTT11=
EXTT12=
EXTT13=
EXTT14=
EXTT15=
EXTT16=
EXTT17=
EXTT18=
EXTT19=
PLAYORDER=
